<?xml version="1.0" encoding="utf-8"?>
<!-- Generator: Adobe Illustrator 24.1.0, SVG Export Plug-In . SVG Version: 6.00 Build 0)  -->
<svg version="1.0" id="Ebene_1" xmlns="http://www.w3.org/2000/svg" xmlns:xlink="http://www.w3.org/1999/xlink" x="0px" y="0px"
	 viewBox="0 0 350 89.6" style="enable-background:new 0 0 350 89.6;" xml:space="preserve">
<style type="text/css">
	.st0{fill:#FFFFFF;}
	.st1{clip-path:url(#SVGID_2_);fill:#50B3E8;}
	.st2{clip-path:url(#SVGID_4_);}
	.st3{opacity:0.9;}
	.st4{fill:#0079B4;}
	.st5{clip-path:url(#SVGID_6_);}
	.st6{fill:#2199D4;}
</style>
<g>
	<g>
		<path class="st0" d="M138.6,38.3v5c0,1.8-1.4,3.7-3.8,3.7h-22.3v4.7c0,5.7,3.3,10.2,10.1,10.2c3.8,0,6.8-0.8,9.6-2
			c0.9-0.4,1.6-0.5,2.1-0.5c1.6,0,2.7,1.2,2.7,2.6c0,1.1-0.6,2-1.6,2.5c-3.8,1.7-9,2.7-12.8,2.7c-10.1,0-16-6.6-16-15.9V38.3
			c0-9.7,6.2-15.9,16-15.9C132.6,22.4,138.6,28.7,138.6,38.3z M112.6,38v3.5h20.3v-3.3c0-6.5-3.5-10.4-10.1-10.4
			C116,27.8,112.6,31.8,112.6,38z"/>
		<path class="st0" d="M182,37.8v26.5c0,1.7-1.3,2.9-2.9,2.9c-1.7,0-2.9-1.2-2.9-2.9V37.7c0-6.3-3.6-9.9-10.1-9.9
			c-3.6,0-6.8,0.6-10.1,1.6v34.9c0,1.7-1.2,2.9-2.9,2.9c-1.6,0-2.9-1.2-2.9-2.9V28.2c0-1.8,0.9-3,2.9-3.7c4.2-1.3,8.3-2.2,13-2.2
			C176.6,22.4,182,28.1,182,37.8z"/>
		<path class="st0" d="M200.5,8v17.6c3.4-2,7.5-3.2,10.9-3.2c9.7,0,15.1,5.6,15.1,15.8v26.2c0,1.7-1.3,2.9-2.9,2.9
			c-1.7,0-2.9-1.2-2.9-2.9V37.7c0-6.6-3.7-9.9-9.9-9.9c-3.6,0-6.9,1.2-10.3,3.7v32.8c0,1.7-1.2,2.9-2.9,2.9c-1.6,0-2.9-1.2-2.9-2.9
			V8c0-1.7,1.3-2.9,2.9-2.9C199.3,5.1,200.5,6.3,200.5,8z"/>
		<path class="st0" d="M268.3,35.3v26.5c0,1.6-0.8,2.9-2.5,3.6c-3.5,1.3-8,2-12.4,2c-10.2,0-17-3.8-17-13.2s7.9-13.1,17-13.1h9.1
			v-5.7c0-4.4-3.3-7.4-9.1-7.4c-3.1,0-5.9,0.7-8.7,2c-1,0.6-1.9,0.9-2.9,0.9c-1.3,0-2.6-1-2.6-2.6c0-1,0.5-1.8,1.4-2.4
			c3-1.7,7.4-3.3,12.6-3.3C261.6,22.4,268.3,26.6,268.3,35.3z M253.2,46.4c-6.3,0-10.9,2.2-10.9,7.8c0,6.1,4.6,7.7,11.1,7.7
			c3,0,6-0.5,9-1.4V46.4H253.2z"/>
		<path class="st0" d="M309.9,25.3V26c0,0.3-0.1,0.5-0.2,0.7l-12.8,38c-0.7,2-2.3,2.6-3.9,2.6s-3.2-0.7-3.9-2.6l-12.7-38
			c-0.2-0.5-0.3-0.8-0.3-1.4c0-1.5,0.8-2.8,2.8-2.8c1.5,0,2.4,0.7,2.8,2.2l11.1,34.2L304,24.5c0.5-1.5,1.4-2.2,2.8-2.2
			C309,22.4,309.9,23.8,309.9,25.3z"/>
		<path class="st0" d="M350,39.1v11.7c0,10.4-6.3,16.6-16.8,16.6c-10.3,0-16.8-6.1-16.8-16.6V39.1c0-10.5,6.4-16.7,16.8-16.7
			C343.7,22.4,350,28.6,350,39.1z M322.4,38.7v12.5c0,6.9,4.4,10.7,10.9,10.7c6.6,0,10.9-3.8,10.9-10.7V38.7
			c0-6.9-4.3-10.8-10.9-10.8C326.8,27.8,322.4,31.7,322.4,38.7z"/>
	</g>
	<g>
		<g>
			<g>
				<defs>
					<path id="SVGID_1_" d="M0,26.4c0-1.8,1.2-4,2.7-4.8L34.6,3.3c1.5-0.8,4.1-0.8,5.6,0L72,21.6c1.5,0.8,2.7,3,2.7,4.8v36.7
						c0,1.8-1.2,4-2.7,4.8L40.1,86.3c-1.5,0.8-4.1,0.8-5.6,0L2.7,68C1.2,67.1,0,65,0,63.2V26.4z"/>
				</defs>
				<clipPath id="SVGID_2_">
					<use xlink:href="#SVGID_1_"  style="overflow:visible;"/>
				</clipPath>
				<path class="st1" d="M38.5,62.2c-0.4,0.2-0.8,0.3-1.2,0.3c-0.4,0-0.8-0.1-1.1-0.3l-13-7.4c-0.8-0.4-1.2-1.2-1.2-2.1V37.5
					c0-0.8,0.5-1.6,1.1-2l13.8-8.5c1.1-0.7,2.5-0.4,3.2,0.8c0.7,1.1,0.3,2.5-0.8,3.2l-12.6,7.7v12.5l10.5,6.1l37.5-21.9v-9
					c0-1.8-1.2-4-2.7-4.8L40.1,3.3c-1.5-0.8-4.1-0.8-5.6,0L2.7,21.6c-1.5,0.8-2.7,3-2.7,4.8v36.7c0,1.8,1.2,4,2.7,4.8l31.8,18.4
					c1.5,0.8,4.1,0.8,5.6,0L72,68c1.5-0.8,2.7-3,2.7-4.8V40.9L38.5,62.2z"/>
			</g>
		</g>
		<g>
			<g>
				<defs>
					<path id="SVGID_3_" d="M0,26.4c0-1.8,1.2-4,2.7-4.8L34.6,3.3c1.5-0.8,4.1-0.8,5.6,0L72,21.6c1.5,0.8,2.7,3,2.7,4.8v36.7
						c0,1.8-1.2,4-2.7,4.8L40.1,86.3c-1.5,0.8-4.1,0.8-5.6,0L2.7,68C1.2,67.1,0,65,0,63.2V26.4z"/>
				</defs>
				<clipPath id="SVGID_4_">
					<use xlink:href="#SVGID_3_"  style="overflow:visible;"/>
				</clipPath>
				<g class="st2">
					<g class="st3">
						<path class="st4" d="M37.3,45L37.3,45l-10.5-6.1l0,0v12.4l0,0l10.5,6l0,0V45z"/>
					</g>
					<g class="st3">
						<path class="st4" d="M36.2,62.2L36.2,62.2l-13-7.4l0,0l-1.1-2l0,0V37.5l0,0l0.3-1.1l0,0L0,23.5l0,0v42.9l0,0l37.3,21.5l0,0
							V62.5l0,0L36.2,62.2z"/>
					</g>
				</g>
			</g>
		</g>
		<g>
			<g>
				<defs>
					<path id="SVGID_5_" d="M0,26.4c0-1.8,1.2-4,2.7-4.8L34.6,3.3c1.5-0.8,4.1-0.8,5.6,0L72,21.6c1.5,0.8,2.7,3,2.7,4.8v36.7
						c0,1.8-1.2,4-2.7,4.8L40.1,86.3c-1.5,0.8-4.1,0.8-5.6,0L2.7,68C1.2,67.1,0,65,0,63.2V26.4z"/>
				</defs>
				<clipPath id="SVGID_6_">
					<use xlink:href="#SVGID_5_"  style="overflow:visible;"/>
				</clipPath>
				<g class="st5">
					<g>
						<path class="st6" d="M38.5,62.2L38.5,62.2c0,0-0.8,0.3-1.2,0.3l0,0l0,0V88l0,0l37.3-21.5l0,0V41.1l0,0L38.5,62.2z"/>
					</g>
					<g>
						<path class="st6" d="M37.3,57.4L37.3,57.4L37.3,57.4L37.3,57.4l37.3-21.8l0,0V23.5l0,0L37.3,45.1l0,0V57.4z"/>
					</g>
				</g>
			</g>
		</g>
	</g>
</g>
</svg>
