<svg xmlns="http://www.w3.org/2000/svg" width="206.608" height="15.445" viewBox="0 0 206.608 15.445">
  <path id="von-hunden-und-menschen" d="M4.781,20a.883.883,0,0,1-.787-.342A1.327,1.327,0,0,1,3.741,19L3,5.649a1.194,1.194,0,0,1,.205-.795A.943.943,0,0,1,4,4.56q.664,0,.862.329a1.44,1.44,0,0,1,.218.656L5.7,17.508l-1.052-.271L10.46,5.389a1.71,1.71,0,0,1,.467-.638,1.175,1.175,0,0,1,.72-.191,1.223,1.223,0,0,1,.606.156.75.75,0,0,1,.368.465,1.115,1.115,0,0,1-.149.784L5.922,19.18a2.174,2.174,0,0,1-.409.591A1.007,1.007,0,0,1,4.781,20Zm7.956,0a2.038,2.038,0,0,1-2-1.157,4.664,4.664,0,0,1-.085-3.143,6.963,6.963,0,0,1,.965-2.226,4.717,4.717,0,0,1,1.518-1.454,3.713,3.713,0,0,1,1.907-.513,2.05,2.05,0,0,1,2,1.127,4.5,4.5,0,0,1,.094,3.075,7.032,7.032,0,0,1-.967,2.272,4.861,4.861,0,0,1-1.525,1.491A3.646,3.646,0,0,1,12.737,20Zm.333-1.852a1.584,1.584,0,0,0,1.231-.775,5.789,5.789,0,0,0,.9-2.075,3.027,3.027,0,0,0,.1-1.44.584.584,0,0,0-.591-.509,1.594,1.594,0,0,0-1.243.75,5.382,5.382,0,0,0-.88,2.006,3.41,3.41,0,0,0-.11,1.509Q12.605,18.148,13.071,18.148ZM23.817,20q-.6,0-.763-.37a1.384,1.384,0,0,1-.024-.91l.832-3.415a6.7,6.7,0,0,0,.171-.855,2.483,2.483,0,0,0,.005-.735q-.052-.3-.3-.3a.988.988,0,0,0-.575.291,5.807,5.807,0,0,0-.742.788,10.409,10.409,0,0,0-.779,1.125,13.8,13.8,0,0,0-.7,1.318,10.27,10.27,0,0,0-.52,1.341l.135-3.384a9.827,9.827,0,0,1,1.273-1.716,6.907,6.907,0,0,1,1.46-1.218,2.719,2.719,0,0,1,1.391-.453,1.9,1.9,0,0,1,.776.152,1.01,1.01,0,0,1,.517.579,3.045,3.045,0,0,1,.136,1.241,11.456,11.456,0,0,1-.377,2.153l-.842,3.36a2.177,2.177,0,0,1-.3.731A.884.884,0,0,1,23.817,20Zm-4.708,0a.758.758,0,0,1-.748-.377,1.341,1.341,0,0,1-.039-.961l1.549-6.191a1.184,1.184,0,0,1,.412-.709,1.346,1.346,0,0,1,.784-.2.733.733,0,0,1,.691.315,1.16,1.16,0,0,1,.047.873l-1.559,6.24a1.892,1.892,0,0,1-.327.731A.981.981,0,0,1,19.109,20Zm16.533,0a.9.9,0,0,1-.821-.371,1.039,1.039,0,0,1-.1-.866L38,5.477a1.52,1.52,0,0,1,.387-.687,1.091,1.091,0,0,1,.764-.231.916.916,0,0,1,.767.333,1.175,1.175,0,0,1,.123.99L36.773,19.108a1.465,1.465,0,0,1-.265.587A1,1,0,0,1,35.643,20Zm1.227-7.3.465-1.955h8.439l-.48,1.955ZM43.2,20a1.039,1.039,0,0,1-.7-.2.736.736,0,0,1-.255-.48,1.781,1.781,0,0,1,.017-.539l3.28-13.406a1.258,1.258,0,0,1,.317-.55,1.029,1.029,0,0,1,.788-.267.94.94,0,0,1,.824.332,1.093,1.093,0,0,1,.1.91l-3.24,13.366a1.364,1.364,0,0,1-.31.555A1.032,1.032,0,0,1,43.2,20ZM49.4,20a1.959,1.959,0,0,1-.773-.147.987.987,0,0,1-.519-.575,3.018,3.018,0,0,1-.133-1.237,11.747,11.747,0,0,1,.374-2.142l.852-3.369a1.741,1.741,0,0,1,.326-.717.954.954,0,0,1,.757-.25q.593,0,.757.344a1.308,1.308,0,0,1,.025.888l-.848,3.429q-.093.417-.161.849a2.1,2.1,0,0,0-.008.726q.059.295.291.295a.981.981,0,0,0,.57-.281,5.309,5.309,0,0,0,.729-.773,9.945,9.945,0,0,0,.761-1.115,14.716,14.716,0,0,0,.686-1.3,10.226,10.226,0,0,0,.515-1.331l-.14,3.345a9.391,9.391,0,0,1-1.244,1.71,6.728,6.728,0,0,1-1.435,1.209A2.678,2.678,0,0,1,49.4,20Zm3.54,0a.708.708,0,0,1-.69-.333,1.275,1.275,0,0,1-.039-.9l1.573-6.235a1.585,1.585,0,0,1,.349-.717,1.053,1.053,0,0,1,.794-.25.769.769,0,0,1,.742.351,1.271,1.271,0,0,1,.039.939l-1.564,6.2a1.321,1.321,0,0,1-.39.731A1.263,1.263,0,0,1,52.937,20Zm8.983,0q-.6,0-.763-.37a1.384,1.384,0,0,1-.024-.91l.832-3.415a6.7,6.7,0,0,0,.171-.855,2.483,2.483,0,0,0,.005-.735q-.052-.3-.3-.3a.988.988,0,0,0-.575.291,5.807,5.807,0,0,0-.742.788,10.409,10.409,0,0,0-.779,1.125,13.8,13.8,0,0,0-.7,1.318,10.27,10.27,0,0,0-.52,1.341l.135-3.384a9.826,9.826,0,0,1,1.273-1.716,6.907,6.907,0,0,1,1.46-1.218,2.719,2.719,0,0,1,1.391-.453,1.9,1.9,0,0,1,.776.152,1.01,1.01,0,0,1,.517.579,3.045,3.045,0,0,1,.136,1.241,11.457,11.457,0,0,1-.377,2.153l-.842,3.36a2.177,2.177,0,0,1-.3.731A.884.884,0,0,1,61.92,20Zm-4.708,0a.758.758,0,0,1-.748-.377,1.341,1.341,0,0,1-.039-.961l1.549-6.191a1.184,1.184,0,0,1,.412-.709,1.346,1.346,0,0,1,.784-.2.733.733,0,0,1,.691.315,1.16,1.16,0,0,1,.047.873l-1.559,6.24a1.892,1.892,0,0,1-.327.731A.981.981,0,0,1,57.212,20Zm14.217,0a1.7,1.7,0,0,1-1.057-.337,1.667,1.667,0,0,1-.569-1.114,5.382,5.382,0,0,1,.207-2.086L72.788,5.389a1.062,1.062,0,0,1,.385-.641,1.311,1.311,0,0,1,.757-.189.8.8,0,0,1,.705.285,1,1,0,0,1,.061.829L71.894,16.9a4.2,4.2,0,0,0-.147.877q-.024.431.153.431.127,0,.467-.415a8.062,8.062,0,0,0,.666-.955,2.626,2.626,0,0,1,.5-.673.854.854,0,0,1,.588-.224.663.663,0,0,1,.533.231.855.855,0,0,1,.2.573,1.707,1.707,0,0,1-.1.566,2.67,2.67,0,0,1-.428.709,6.709,6.709,0,0,1-1.5,1.485A2.527,2.527,0,0,1,71.429,20Zm-3.7,0a1.95,1.95,0,0,1-1.91-1.157,4.738,4.738,0,0,1-.07-3.143,7.171,7.171,0,0,1,.95-2.226,4.757,4.757,0,0,1,1.459-1.454,3.307,3.307,0,0,1,1.76-.513,1.191,1.191,0,0,1,1.11.522,2.514,2.514,0,0,1,.257,1.464,11.894,11.894,0,0,1-.395,2.217,14.578,14.578,0,0,1-.77,2.237,4.662,4.662,0,0,1-1.013,1.512A1.945,1.945,0,0,1,67.732,20Zm.436-1.852a1.584,1.584,0,0,0,1.231-.775,5.789,5.789,0,0,0,.9-2.075,3.027,3.027,0,0,0,.1-1.44.584.584,0,0,0-.591-.509,1.594,1.594,0,0,0-1.243.75,5.382,5.382,0,0,0-.88,2.006,3.41,3.41,0,0,0-.11,1.509Q67.7,18.148,68.168,18.148ZM78.491,20a2.13,2.13,0,0,1-1.375-.466,2.316,2.316,0,0,1-.772-1.4,5.486,5.486,0,0,1,.153-2.345,7.579,7.579,0,0,1,.943-2.248,4.921,4.921,0,0,1,1.437-1.5,3.138,3.138,0,0,1,1.745-.535,2.022,2.022,0,0,1,1.428.513,1.6,1.6,0,0,1,.556,1.212,2.318,2.318,0,0,1-.664,1.482A7.091,7.091,0,0,1,80.1,16.165a13.3,13.3,0,0,1-2.757,1.166l.255-1.564a6.762,6.762,0,0,0,1.433-.556,5.217,5.217,0,0,0,1.152-.793,1.182,1.182,0,0,0,.459-.813.233.233,0,0,0-.081-.187.344.344,0,0,0-.23-.069,1.055,1.055,0,0,0-.779.4A3.879,3.879,0,0,0,78.9,14.8a8.724,8.724,0,0,0-.472,1.39,3.43,3.43,0,0,0-.14,1.428q.1.527.549.527a2.2,2.2,0,0,0,1.23-.519,10.383,10.383,0,0,0,1.594-1.536.958.958,0,0,1,.662-.349,1.029,1.029,0,0,1,.761.216.893.893,0,0,1,.329.612,1.035,1.035,0,0,1-.245.765,9.293,9.293,0,0,1-2.319,1.993A4.692,4.692,0,0,1,78.491,20Zm11.439,0q-.6,0-.763-.37a1.384,1.384,0,0,1-.024-.91l.832-3.415a6.7,6.7,0,0,0,.171-.855,2.483,2.483,0,0,0,.005-.735q-.052-.3-.3-.3a.988.988,0,0,0-.575.291,5.807,5.807,0,0,0-.742.788,10.409,10.409,0,0,0-.779,1.125,13.8,13.8,0,0,0-.7,1.318,10.27,10.27,0,0,0-.52,1.341l.135-3.384a9.827,9.827,0,0,1,1.273-1.716,6.907,6.907,0,0,1,1.46-1.218,2.719,2.719,0,0,1,1.391-.453,1.9,1.9,0,0,1,.776.152,1.01,1.01,0,0,1,.517.579,3.045,3.045,0,0,1,.136,1.241,11.457,11.457,0,0,1-.377,2.153L91,18.991a2.177,2.177,0,0,1-.3.731A.884.884,0,0,1,89.929,20Zm-4.708,0a.758.758,0,0,1-.748-.377,1.341,1.341,0,0,1-.039-.961l1.549-6.191a1.184,1.184,0,0,1,.412-.709,1.346,1.346,0,0,1,.784-.2.733.733,0,0,1,.691.315,1.16,1.16,0,0,1,.047.873l-1.559,6.24a1.892,1.892,0,0,1-.327.731A.981.981,0,0,1,85.221,20Zm16.638,0a1.959,1.959,0,0,1-.773-.147.987.987,0,0,1-.519-.575,3.017,3.017,0,0,1-.133-1.237,11.747,11.747,0,0,1,.374-2.142l.852-3.369a1.741,1.741,0,0,1,.326-.717.954.954,0,0,1,.757-.25q.593,0,.757.344a1.308,1.308,0,0,1,.025.888l-.848,3.429q-.093.417-.161.849a2.1,2.1,0,0,0-.008.726q.059.295.291.295a.981.981,0,0,0,.57-.281,5.309,5.309,0,0,0,.729-.773,9.945,9.945,0,0,0,.761-1.115,14.717,14.717,0,0,0,.686-1.3,10.227,10.227,0,0,0,.515-1.331l-.14,3.345a9.391,9.391,0,0,1-1.244,1.71,6.729,6.729,0,0,1-1.435,1.209A2.678,2.678,0,0,1,101.859,20Zm3.54,0a.708.708,0,0,1-.69-.333,1.275,1.275,0,0,1-.039-.9l1.573-6.235a1.585,1.585,0,0,1,.349-.717,1.053,1.053,0,0,1,.794-.25.769.769,0,0,1,.742.351,1.271,1.271,0,0,1,.039.939l-1.564,6.2a1.321,1.321,0,0,1-.39.731A1.263,1.263,0,0,1,105.4,20Zm8.983,0q-.6,0-.763-.37a1.384,1.384,0,0,1-.024-.91l.832-3.415a6.7,6.7,0,0,0,.171-.855,2.483,2.483,0,0,0,.005-.735q-.052-.3-.3-.3a.988.988,0,0,0-.575.291,5.807,5.807,0,0,0-.742.788,10.409,10.409,0,0,0-.779,1.125,13.8,13.8,0,0,0-.7,1.318,10.27,10.27,0,0,0-.52,1.341l.135-3.384a9.827,9.827,0,0,1,1.273-1.716,6.907,6.907,0,0,1,1.46-1.218,2.719,2.719,0,0,1,1.391-.453,1.9,1.9,0,0,1,.776.152,1.01,1.01,0,0,1,.517.579,3.045,3.045,0,0,1,.136,1.241,11.457,11.457,0,0,1-.377,2.153l-.842,3.36a2.177,2.177,0,0,1-.3.731A.884.884,0,0,1,114.381,20Zm-4.708,0a.758.758,0,0,1-.748-.377,1.341,1.341,0,0,1-.039-.961l1.549-6.191a1.184,1.184,0,0,1,.412-.709,1.346,1.346,0,0,1,.784-.2.733.733,0,0,1,.691.315,1.16,1.16,0,0,1,.047.873l-1.559,6.24a1.892,1.892,0,0,1-.327.731A.981.981,0,0,1,109.673,20Zm14.217,0a1.7,1.7,0,0,1-1.057-.337,1.667,1.667,0,0,1-.569-1.114,5.382,5.382,0,0,1,.207-2.086l2.777-11.073a1.062,1.062,0,0,1,.385-.641,1.311,1.311,0,0,1,.757-.189.8.8,0,0,1,.705.285,1,1,0,0,1,.061.829l-2.8,11.224a4.2,4.2,0,0,0-.147.877q-.024.431.153.431.127,0,.467-.415a8.062,8.062,0,0,0,.666-.955,2.626,2.626,0,0,1,.5-.673.854.854,0,0,1,.588-.224.663.663,0,0,1,.533.231.855.855,0,0,1,.2.573,1.707,1.707,0,0,1-.1.566,2.67,2.67,0,0,1-.428.709,6.709,6.709,0,0,1-1.5,1.485A2.527,2.527,0,0,1,123.89,20Zm-3.7,0a1.95,1.95,0,0,1-1.91-1.157,4.738,4.738,0,0,1-.07-3.143,7.171,7.171,0,0,1,.95-2.226,4.757,4.757,0,0,1,1.459-1.454,3.307,3.307,0,0,1,1.76-.513,1.191,1.191,0,0,1,1.11.522,2.514,2.514,0,0,1,.257,1.464,11.894,11.894,0,0,1-.395,2.217,14.578,14.578,0,0,1-.77,2.237,4.662,4.662,0,0,1-1.013,1.512A1.945,1.945,0,0,1,120.193,20Zm.436-1.852a1.584,1.584,0,0,0,1.231-.775,5.789,5.789,0,0,0,.9-2.075,3.027,3.027,0,0,0,.1-1.44.584.584,0,0,0-.591-.509,1.594,1.594,0,0,0-1.243.75,5.382,5.382,0,0,0-.88,2.006,3.41,3.41,0,0,0-.11,1.509Q120.164,18.148,120.629,18.148ZM136.965,20a.837.837,0,0,1-.757-.4,1.151,1.151,0,0,1-.153-.879L139.2,5.988a1.845,1.845,0,0,1,.558-1.07,1.37,1.37,0,0,1,.917-.359,1.231,1.231,0,0,1,.9.361,1.893,1.893,0,0,1,.441,1.205l1.063,11.589-1.007-.212,6.916-11.623a3.452,3.452,0,0,1,.839-1.061,1.335,1.335,0,0,1,.779-.26,1.275,1.275,0,0,1,1.047.417,1.378,1.378,0,0,1,.143,1.236l-3.229,12.978a1.458,1.458,0,0,1-.273.545.978.978,0,0,1-.8.263.9.9,0,0,1-.646-.218,1,1,0,0,1-.3-.513,1.111,1.111,0,0,1,0-.547L149.8,5.772h1.643L143.254,19.36a1.247,1.247,0,0,1-.474.479,1.215,1.215,0,0,1-.6.161,1.042,1.042,0,0,1-.725-.227.893.893,0,0,1-.285-.6L139.937,6.144l1.315.137L138.091,19.1a1.5,1.5,0,0,1-.342.62A1,1,0,0,1,136.965,20Zm17.427,0a2.13,2.13,0,0,1-1.375-.466,2.316,2.316,0,0,1-.772-1.4,5.486,5.486,0,0,1,.153-2.345,7.58,7.58,0,0,1,.943-2.248,4.921,4.921,0,0,1,1.437-1.5,3.138,3.138,0,0,1,1.745-.535,2.022,2.022,0,0,1,1.428.513,1.6,1.6,0,0,1,.556,1.212,2.318,2.318,0,0,1-.664,1.482A7.09,7.09,0,0,1,156,16.165a13.3,13.3,0,0,1-2.757,1.166l.255-1.564a6.761,6.761,0,0,0,1.433-.556,5.217,5.217,0,0,0,1.152-.793,1.182,1.182,0,0,0,.459-.813.233.233,0,0,0-.081-.187.344.344,0,0,0-.23-.069,1.055,1.055,0,0,0-.779.4A3.878,3.878,0,0,0,154.8,14.8a8.723,8.723,0,0,0-.472,1.39,3.43,3.43,0,0,0-.14,1.428q.1.527.549.527a2.2,2.2,0,0,0,1.23-.519,10.382,10.382,0,0,0,1.594-1.536.958.958,0,0,1,.662-.349,1.029,1.029,0,0,1,.761.216.893.893,0,0,1,.329.612,1.035,1.035,0,0,1-.245.765,9.293,9.293,0,0,1-2.319,1.993A4.692,4.692,0,0,1,154.392,20Zm11.439,0q-.6,0-.763-.37a1.384,1.384,0,0,1-.024-.91l.832-3.415a6.7,6.7,0,0,0,.171-.855,2.484,2.484,0,0,0,.005-.735q-.052-.3-.3-.3a.988.988,0,0,0-.575.291,5.808,5.808,0,0,0-.742.788,10.411,10.411,0,0,0-.779,1.125,13.8,13.8,0,0,0-.7,1.318,10.268,10.268,0,0,0-.52,1.341l.135-3.384a9.827,9.827,0,0,1,1.273-1.716,6.908,6.908,0,0,1,1.46-1.218,2.719,2.719,0,0,1,1.391-.453,1.9,1.9,0,0,1,.776.152,1.01,1.01,0,0,1,.517.579,3.046,3.046,0,0,1,.136,1.241,11.456,11.456,0,0,1-.377,2.153l-.842,3.36a2.177,2.177,0,0,1-.3.731A.884.884,0,0,1,165.831,20Zm-4.708,0a.758.758,0,0,1-.748-.377,1.341,1.341,0,0,1-.039-.961l1.549-6.191a1.184,1.184,0,0,1,.412-.709,1.346,1.346,0,0,1,.784-.2.733.733,0,0,1,.691.315,1.16,1.16,0,0,1,.047.873l-1.559,6.24a1.892,1.892,0,0,1-.327.731A.981.981,0,0,1,161.122,20Zm10.816,0a2.618,2.618,0,0,1-2.367-1.353,1.238,1.238,0,0,1-.234-.915.938.938,0,0,1,.475-.653.808.808,0,0,1,.685-.091,1.425,1.425,0,0,1,.649.663,1,1,0,0,0,.943.5,1.6,1.6,0,0,0,.945-.289.933.933,0,0,0,.445-.663q.051-.36-.195-.473a1.515,1.515,0,0,0-.629-.113,2.279,2.279,0,0,1-1.937-.716,2.421,2.421,0,0,1-.335-1.913,2.93,2.93,0,0,1,1.1-1.775,3.285,3.285,0,0,1,2.093-.7,2.81,2.81,0,0,1,2.035.811,1.25,1.25,0,0,1,.46.859,1.066,1.066,0,0,1-.354.775.781.781,0,0,1-.7.2,1.58,1.58,0,0,1-.785-.429,1.232,1.232,0,0,0-.39-.275,1.22,1.22,0,0,0-.5-.1,1.133,1.133,0,0,0-.667.194.8.8,0,0,0-.338.537.513.513,0,0,0,.111.42.757.757,0,0,0,.6.179,3.525,3.525,0,0,1,1.613.291,1.4,1.4,0,0,1,.717.815,2.748,2.748,0,0,1,.075,1.222,3.109,3.109,0,0,1-.607,1.527,3.69,3.69,0,0,1-1.265,1.072A3.51,3.51,0,0,1,171.938,20Zm7.665,0a2.19,2.19,0,0,1-1.5-.522,2.542,2.542,0,0,1-.787-1.419,4.493,4.493,0,0,1,.081-2.021,7.737,7.737,0,0,1,1.632-3.292,3.411,3.411,0,0,1,2.627-1.24,1.767,1.767,0,0,1,1.353.517,2.533,2.533,0,0,1,.625,1.354,1.017,1.017,0,0,1-.1.692.863.863,0,0,1-.508.419.954.954,0,0,1-.9-.021.7.7,0,0,1-.35-.605.607.607,0,0,0-.09-.356.327.327,0,0,0-.286-.127,1.12,1.12,0,0,0-.8.42,4.212,4.212,0,0,0-.7,1.025A6.343,6.343,0,0,0,179.449,16a4.169,4.169,0,0,0-.148,1.594q.1.557.537.557a1.163,1.163,0,0,0,.785-.451,3.9,3.9,0,0,0,.717-1.111.917.917,0,0,1,.541-.533.989.989,0,0,1,.718.007,1,1,0,0,1,.547.519.912.912,0,0,1-.007.759,4.518,4.518,0,0,1-1.437,1.927A3.363,3.363,0,0,1,179.6,20Zm10.453.005q-.615,0-.77-.37a1.464,1.464,0,0,1-.031-.9l.847-3.425a6.433,6.433,0,0,0,.158-.855,2.711,2.711,0,0,0,0-.735q-.049-.3-.282-.3a.988.988,0,0,0-.575.291,5.806,5.806,0,0,0-.742.788,10.407,10.407,0,0,0-.779,1.125,14.229,14.229,0,0,0-.7,1.318,10.053,10.053,0,0,0-.523,1.341l.14-3.384a9.287,9.287,0,0,1,1.258-1.716,6.855,6.855,0,0,1,1.465-1.218,2.73,2.73,0,0,1,1.387-.453,1.882,1.882,0,0,1,.783.152,1.044,1.044,0,0,1,.517.579,2.943,2.943,0,0,1,.143,1.241,11.455,11.455,0,0,1-.377,2.153L191.13,19a2.177,2.177,0,0,1-.3.731A.884.884,0,0,1,190.057,20.005ZM185.349,20a.756.756,0,0,1-.755-.377,1.372,1.372,0,0,1-.031-.961l3.3-13.2a1.244,1.244,0,0,1,.427-.709,1.321,1.321,0,0,1,.784-.193.745.745,0,0,1,.691.317,1.152,1.152,0,0,1,.047.87l-3.329,13.243a1.922,1.922,0,0,1-.325.731A.972.972,0,0,1,185.349,20Zm10.52,0a2.13,2.13,0,0,1-1.375-.466,2.316,2.316,0,0,1-.772-1.4,5.486,5.486,0,0,1,.153-2.345,7.58,7.58,0,0,1,.943-2.248,4.921,4.921,0,0,1,1.437-1.5A3.138,3.138,0,0,1,198,11.507a2.022,2.022,0,0,1,1.428.513,1.6,1.6,0,0,1,.556,1.212,2.318,2.318,0,0,1-.664,1.482,7.09,7.09,0,0,1-1.841,1.451,13.3,13.3,0,0,1-2.757,1.166l.255-1.564a6.761,6.761,0,0,0,1.433-.556,5.217,5.217,0,0,0,1.152-.793,1.182,1.182,0,0,0,.459-.813.233.233,0,0,0-.081-.187.344.344,0,0,0-.23-.069,1.055,1.055,0,0,0-.779.4,3.878,3.878,0,0,0-.651,1.051,8.723,8.723,0,0,0-.472,1.39,3.43,3.43,0,0,0-.14,1.428q.1.527.549.527a2.2,2.2,0,0,0,1.23-.519,10.382,10.382,0,0,0,1.594-1.536.958.958,0,0,1,.662-.349,1.029,1.029,0,0,1,.761.216.893.893,0,0,1,.329.612,1.035,1.035,0,0,1-.245.765,9.293,9.293,0,0,1-2.319,1.993A4.692,4.692,0,0,1,195.869,20Zm11.439,0q-.6,0-.763-.37a1.384,1.384,0,0,1-.024-.91l.832-3.415a6.7,6.7,0,0,0,.171-.855,2.484,2.484,0,0,0,.005-.735q-.052-.3-.3-.3a.988.988,0,0,0-.575.291,5.808,5.808,0,0,0-.742.788,10.411,10.411,0,0,0-.779,1.125,13.8,13.8,0,0,0-.7,1.318,10.268,10.268,0,0,0-.52,1.341l.135-3.384a9.827,9.827,0,0,1,1.273-1.716,6.908,6.908,0,0,1,1.46-1.218,2.719,2.719,0,0,1,1.391-.453,1.9,1.9,0,0,1,.776.152,1.01,1.01,0,0,1,.517.579,3.046,3.046,0,0,1,.136,1.241,11.456,11.456,0,0,1-.377,2.153l-.842,3.36a2.177,2.177,0,0,1-.3.731A.884.884,0,0,1,207.308,20ZM202.6,20a.758.758,0,0,1-.748-.377,1.341,1.341,0,0,1-.039-.961l1.549-6.191a1.184,1.184,0,0,1,.412-.709,1.346,1.346,0,0,1,.784-.2.733.733,0,0,1,.691.315,1.16,1.16,0,0,1,.047.873l-1.559,6.24a1.892,1.892,0,0,1-.327.731A.981.981,0,0,1,202.6,20Z" transform="translate(-2.998 -4.56)" fill="#fff"/>
</svg>
