<svg xmlns="http://www.w3.org/2000/svg" width="86.391" height="70.268" viewBox="0 0 86.391 70.268">
  <path id="Pfad_25516" data-name="Pfad 25516" d="M1.128,56.485l12.74,10.351C32.181,46.93,41.139,30.01,41.139,14.881c0-11.944-6.569-18.313-16.522-18.313S7.3,3.535,7.3,14.284c0,9.356,5.773,12.74,5.773,18.313C13.072,40.56,1.128,56.485,1.128,56.485Zm46.381,0L60.049,66.836C78.562,46.93,87.52,30.01,87.52,14.881,87.52,2.938,80.752-3.432,70.8-3.432c-9.754,0-17.119,6.967-17.119,17.716,0,9.356,5.773,12.74,5.773,18.313C59.452,40.56,47.509,56.485,47.509,56.485Z" transform="translate(-1.128 3.432)" fill="#fff"/>
</svg>
